<svg xmlns="http://www.w3.org/2000/svg" xmlns:xlink="http://www.w3.org/1999/xlink" viewBox="0 0 1190.55 1190.55"><defs><style>.cls-1,.cls-3,.cls-36,.cls-6{fill:none;}.cls-2{fill:#c7b299;}.cls-3{stroke:#9e005d;}.cls-3,.cls-36,.cls-6{stroke-miterlimit:10;}.cls-4{clip-path:url(#clip-path);}.cls-5{clip-path:url(#clip-path-2);}.cls-6{stroke:#f7931e;}.cls-7{font-size:16px;font-family:OpenSansCondensed-Light, Open Sans Condensed;}.cls-8{letter-spacing:0.01em;}.cls-9{letter-spacing:0.71em;}.cls-10{letter-spacing:0.52em;}.cls-11{letter-spacing:0.52em;}.cls-12{letter-spacing:0.15em;}.cls-13{letter-spacing:0.15em;}.cls-14{letter-spacing:0.42em;}.cls-15{letter-spacing:0.42em;}.cls-16{letter-spacing:0.2em;}.cls-17{letter-spacing:0.28em;}.cls-18{letter-spacing:0.05em;}.cls-19{letter-spacing:0.21em;}.cls-20{letter-spacing:0.04em;}.cls-21{letter-spacing:0.07em;}.cls-22{letter-spacing:0.07em;}.cls-23{letter-spacing:0.17em;}.cls-24{letter-spacing:-0.01em;}.cls-25{letter-spacing:-0.01em;}.cls-26{letter-spacing:0.25em;}.cls-27{letter-spacing:0.25em;}.cls-28{letter-spacing:0.11em;}.cls-29{letter-spacing:0.01em;}.cls-30{letter-spacing:-0.01em;}.cls-31{letter-spacing:-0.01em;}.cls-32{letter-spacing:0.07em;}.cls-33{letter-spacing:0.07em;}.cls-34{letter-spacing:0.26em;}.cls-35{letter-spacing:0.26em;}.cls-36{stroke:#009245;}.cls-37{font-size:60px;font-family:OpenSansCondensed-Bold, Open Sans Condensed;font-weight:700;}.cls-38{font-size:10px;font-family:EBGaramond-Italic, EB Garamond;font-style:italic;}.cls-39{letter-spacing:-0.02em;}.cls-40{letter-spacing:-0.02em;}.cls-41{letter-spacing:-0.01em;}.cls-42{letter-spacing:-0.02em;}.cls-43{letter-spacing:-0.03em;}.cls-44{letter-spacing:-0.04em;}.cls-45{letter-spacing:-0.02em;}.cls-46{letter-spacing:0em;}.cls-47{letter-spacing:-0.04em;}.cls-48{letter-spacing:0em;}</style><clipPath id="clip-path"><rect class="cls-1" x="613" y="337" width="240" height="240"/></clipPath><clipPath id="clip-path-2"><circle class="cls-1" cx="336" cy="899.25" r="166.25"/></clipPath></defs><title>877689_07</title><g id="Livello_1" data-name="Livello 1"><rect class="cls-2" width="1190.55" height="1190.55"/><rect class="cls-1" x="612.77" y="337" width="239.78" height="239.78"/></g><g id="Livello_2" data-name="Livello 2"><rect class="cls-3" x="61" y="60" width="240" height="240"/><rect class="cls-3" x="61" y="337" width="240" height="240"/><rect class="cls-3" x="337" y="60" width="240" height="240"/><rect class="cls-3" x="337" y="337" width="240" height="240"/><rect class="cls-3" x="613" y="60" width="240" height="240"/><g class="cls-4"><image width="564" height="847" transform="translate(589.5 317.5)" xlink:href="877689_03.jpg"/></g><rect class="cls-3" x="889" y="60" width="240" height="240"/><rect class="cls-3" x="889" y="337" width="240" height="240"/><rect class="cls-3" x="889" y="613" width="240" height="240"/><rect class="cls-3" x="613" y="613" width="240" height="240"/><rect class="cls-3" x="889" y="889" width="240" height="240"/><rect class="cls-3" x="613" y="889" width="240" height="240"/><rect class="cls-3" x="336" y="889" width="240" height="240"/><rect class="cls-3" x="61" y="889" width="240" height="240"/><rect class="cls-3" x="61" y="613" width="240" height="240"/><rect class="cls-3" x="336" y="613" width="240" height="240"/><g class="cls-5"><image width="560" height="840" transform="translate(-18.25 593.78)" xlink:href="877689_05.jpg"/></g><rect class="cls-1" x="889" y="889" width="239.77" height="239.89"/></g><g id="Livello_3" data-name="Livello 3"><rect class="cls-6" x="61" y="60" width="184" height="184"/><rect class="cls-6" x="281" y="60" width="184" height="184"/><rect class="cls-6" x="281" y="281" width="184" height="184"/><rect class="cls-6" x="61" y="281" width="184" height="184"/><rect class="cls-6" x="503.27" y="60" width="184" height="184"/><rect class="cls-6" x="503.27" y="281" width="184" height="184"/><rect class="cls-6" x="503.27" y="503.28" width="184" height="184"/><rect class="cls-6" x="281" y="503.13" width="184" height="184"/><rect class="cls-6" x="61" y="502" width="184" height="184"/><rect class="cls-6" x="61" y="723" width="184" height="184"/><rect class="cls-6" x="281" y="723" width="184" height="184"/><rect class="cls-6" x="503.13" y="723" width="184" height="184"/><rect class="cls-6" x="503.27" y="945" width="184" height="184"/><rect class="cls-6" x="281" y="945" width="184" height="184"/><rect class="cls-6" x="61" y="945" width="184" height="184"/><rect class="cls-6" x="724" y="60" width="184" height="184"/><rect class="cls-6" x="945" y="60" width="184" height="184"/><rect class="cls-6" x="945" y="281" width="184" height="184"/><rect class="cls-6" x="724" y="281" width="184" height="184"/><rect class="cls-6" x="724" y="503.28" width="184" height="184"/><rect class="cls-6" x="945" y="503.13" width="184" height="184"/><rect class="cls-6" x="724" y="723" width="184" height="184"/><rect class="cls-6" x="945" y="723" width="184" height="184"/><rect class="cls-6" x="724" y="945" width="184" height="184"/><rect class="cls-6" x="945" y="945" width="184" height="184"/><text class="cls-7" transform="translate(435.02 77.41)"><tspan class="cls-8">Lore</tspan><tspan x="23.27" y="0">m </tspan><tspan x="-55.04" y="24">ipsum</tspan><tspan class="cls-9" x="-23.04" y="24"> </tspan><tspan x="-8.72" y="24">dolor</tspan><tspan class="cls-9" x="18.91" y="24"> </tspan><tspan x="33.24" y="24">sit</tspan><tspan class="cls-9" x="44.79" y="24"> </tspan><tspan x="59.12" y="24">amet, </tspan><tspan x="-77.48" y="48">consectetuer</tspan><tspan class="cls-10" x="-12.08" y="48"> </tspan><tspan x="-0.77" y="48">adipiscing</tspan><tspan class="cls-11" x="50.92" y="48"> </tspan><tspan x="62.24" y="48">elit,</tspan><tspan class="cls-10" x="81.33" y="48"> </tspan><tspan x="92.64" y="48">sed </tspan><tspan x="-90.27" y="72">diam</tspan><tspan class="cls-12" x="-63.98" y="72"> </tspan><tspan x="-58.64" y="72">nonummy</tspan><tspan class="cls-13" x="-6.15" y="72"> </tspan><tspan x="-0.81" y="72">nibh</tspan><tspan class="cls-13" x="22.77" y="72"> </tspan><tspan x="28.11" y="72">euismod</tspan><tspan class="cls-12" x="73.03" y="72"> </tspan><tspan x="78.37" y="72">tincidunt </tspan><tspan x="-96.69" y="96">ut</tspan><tspan class="cls-14" x="-86.39" y="96"> </tspan><tspan x="-76.6" y="96">laoreet</tspan><tspan class="cls-15" x="-40.41" y="96"> </tspan><tspan x="-30.62" y="96">dolore</tspan><tspan class="cls-14" x="3.28" y="96"> </tspan><tspan x="13.07" y="96">magna</tspan><tspan class="cls-15" x="48.08" y="96"> </tspan><tspan x="57.87" y="96">aliquam</tspan><tspan class="cls-14" x="100.09" y="96"> </tspan><tspan x="109.87" y="96">erat </tspan><tspan x="-96.71" y="120">volutpat.</tspan><tspan class="cls-16" x="-51.75" y="120"> </tspan><tspan x="-45.52" y="120">Ut</tspan><tspan class="cls-16" x="-34.11" y="120"> </tspan><tspan x="-27.89" y="120">wisi</tspan><tspan class="cls-16" x="-8.05" y="120"> </tspan><tspan x="-1.82" y="120">enim</tspan><tspan class="cls-16" x="24.43" y="120"> </tspan><tspan x="30.66" y="120">ad</tspan><tspan class="cls-16" x="43.76" y="120"> </tspan><tspan x="49.99" y="120">minim</tspan><tspan class="cls-16" x="83.16" y="120"> </tspan><tspan x="89.38" y="120">veniam, </tspan><tspan x="-90.33" y="144">quis</tspan><tspan class="cls-17" x="-68.51" y="144"> </tspan><tspan x="-61.08" y="144">nostrud</tspan><tspan class="cls-17" x="-20.95" y="144"> </tspan><tspan x="-13.53" y="144">exerci</tspan><tspan class="cls-17" x="16.64" y="144"> </tspan><tspan x="24.06" y="144">tation</tspan><tspan class="cls-17" x="53.65" y="144"> </tspan><tspan x="61.08" y="144">ullamcorper </tspan><tspan x="-77.57" y="168">suscipit</tspan><tspan class="cls-18" x="-39.24" y="168"> </tspan><tspan x="-35.39" y="168">lobortis</tspan><tspan class="cls-18" x="3.8" y="168"> </tspan><tspan x="7.64" y="168">nisl</tspan><tspan class="cls-18" x="25.49" y="168"> </tspan><tspan x="29.34" y="168">ut</tspan><tspan class="cls-18" x="39.64" y="168"> </tspan><tspan x="43.49" y="168">aliquip</tspan><tspan class="cls-18" x="79.38" y="168"> </tspan><tspan x="83.23" y="168">ex</tspan><tspan class="cls-18" x="94.78" y="168"> </tspan><tspan x="98.63" y="168">ea </tspan><tspan x="-55.21" y="192">commodo</tspan><tspan class="cls-19" x="-2.99" y="192"> </tspan><tspan x="3.32" y="192">consequat.</tspan><tspan class="cls-19" x="59.73" y="192"> </tspan><tspan x="66.05" y="192">Duis </tspan><tspan class="cls-20" x="-0.9" y="216">aute</tspan><tspan x="24.17" y="216">m </tspan></text><text class="cls-7" transform="translate(68.13 359.29)">Lorem<tspan class="cls-21" x="33.02" y="0"> </tspan><tspan x="37.17" y="0">ipsum</tspan><tspan class="cls-22" x="69.17" y="0"> </tspan><tspan x="73.32" y="0">dolor</tspan><tspan class="cls-21" x="100.95" y="0"> </tspan><tspan x="105.11" y="0">sit</tspan><tspan class="cls-22" x="116.66" y="0"> </tspan><tspan x="120.82" y="0">amet,</tspan><tspan class="cls-21" x="150.2" y="0"> </tspan><tspan x="154.35" y="0">consectetuer </tspan><tspan x="0" y="24">adipiscing</tspan><tspan class="cls-23" x="51.69" y="24"> </tspan><tspan x="57.35" y="24">elit,</tspan><tspan class="cls-23" x="76.45" y="24"> </tspan><tspan x="82.11" y="24">sed</tspan><tspan class="cls-23" x="100.4" y="24"> </tspan><tspan x="106.06" y="24">diam</tspan><tspan class="cls-23" x="132.35" y="24"> </tspan><tspan x="138.02" y="24">nonummy</tspan><tspan class="cls-23" x="190.51" y="24"> </tspan><tspan x="196.17" y="24">nibh </tspan><tspan x="0" y="48">euismod</tspan><tspan class="cls-24" x="44.91" y="48"> </tspan><tspan x="47.73" y="48">tincidunt</tspan><tspan class="cls-24" x="93.08" y="48"> </tspan><tspan x="95.9" y="48">ut</tspan><tspan class="cls-25" x="106.2" y="48"> </tspan><tspan x="109.01" y="48">laoreet</tspan><tspan class="cls-24" x="145.21" y="48"> </tspan><tspan x="148.02" y="48">dolore</tspan><tspan class="cls-24" x="181.92" y="48"> </tspan><tspan x="184.73" y="48">magna </tspan><tspan x="0" y="72">aliquam</tspan><tspan class="cls-26" x="42.22" y="72"> </tspan><tspan x="49.17" y="72">erat</tspan><tspan class="cls-27" x="69.44" y="72"> </tspan><tspan x="76.39" y="72">volutpat.</tspan><tspan class="cls-26" x="121.35" y="72"> </tspan><tspan x="128.3" y="72">Ut</tspan><tspan class="cls-26" x="139.71" y="72"> </tspan><tspan x="146.66" y="72">wisi</tspan><tspan class="cls-27" x="166.49" y="72"> </tspan><tspan x="173.44" y="72">enim</tspan><tspan class="cls-26" x="199.7" y="72"> </tspan><tspan x="206.65" y="72">ad </tspan><tspan x="0" y="96">minim</tspan><tspan class="cls-28" x="33.17" y="96"> </tspan><tspan x="37.99" y="96">veniam,</tspan><tspan class="cls-28" x="78.77" y="96"> </tspan><tspan x="83.59" y="96">quis</tspan><tspan class="cls-28" x="105.41" y="96"> </tspan><tspan x="110.23" y="96">nostrud</tspan><tspan class="cls-28" x="150.36" y="96"> </tspan><tspan x="155.18" y="96">exerci</tspan><tspan class="cls-28" x="185.34" y="96"> </tspan><tspan x="190.16" y="96">tation </tspan><tspan x="0" y="120">ullamcorper</tspan><tspan class="cls-29" x="62.7" y="120"> </tspan><tspan x="65.8" y="120">suscipit</tspan><tspan class="cls-29" x="104.13" y="120"> </tspan><tspan x="107.23" y="120">lobortis</tspan><tspan class="cls-29" x="146.41" y="120"> </tspan><tspan x="149.51" y="120">nisl</tspan><tspan class="cls-29" x="167.36" y="120"> </tspan><tspan x="170.45" y="120">ut</tspan><tspan class="cls-29" x="180.76" y="120"> </tspan><tspan x="183.85" y="120">aliquip </tspan><tspan x="0" y="144">ex</tspan><tspan class="cls-30" x="11.55" y="144"> </tspan><tspan x="14.44" y="144">ea</tspan><tspan class="cls-31" x="26.83" y="144"> </tspan><tspan x="29.71" y="144">commodo</tspan><tspan class="cls-30" x="81.93" y="144"> </tspan><tspan x="84.81" y="144">consequat.</tspan><tspan class="cls-30" x="141.23" y="144"> </tspan><tspan x="144.11" y="144">Duis</tspan><tspan class="cls-31" x="166.72" y="144"> </tspan><tspan x="169.6" y="144">autem</tspan><tspan class="cls-30" x="202.49" y="144"> </tspan><tspan x="205.37" y="144">vel </tspan><tspan x="0" y="168">eum</tspan><tspan class="cls-32" x="23.25" y="168"> </tspan><tspan x="27.41" y="168">iriure</tspan><tspan class="cls-33" x="55.23" y="168"> </tspan><tspan x="59.4" y="168">dolor</tspan><tspan class="cls-32" x="87.03" y="168"> </tspan><tspan x="91.19" y="168">in</tspan><tspan class="cls-32" x="101" y="168"> </tspan><tspan x="105.16" y="168">hendrerit</tspan><tspan class="cls-33" x="153.53" y="168"> </tspan><tspan x="157.69" y="168">in</tspan><tspan class="cls-32" x="167.49" y="168"> </tspan><tspan x="171.66" y="168">vulputate </tspan><tspan x="0" y="192">velit</tspan><tspan class="cls-34" x="20.9" y="192"> </tspan><tspan x="28" y="192">esse</tspan><tspan class="cls-34" x="50.62" y="192"> </tspan><tspan x="57.72" y="192">molestie</tspan><tspan class="cls-35" x="101.65" y="192"> </tspan><tspan x="108.75" y="192">consequat,</tspan><tspan class="cls-34" x="165.17" y="192"> </tspan><tspan x="172.27" y="192">vel</tspan><tspan class="cls-34" x="186.65" y="192"> </tspan><tspan x="193.75" y="192">illum </tspan></text></g><g id="Livello_4" data-name="Livello 4"><rect class="cls-36" x="61" y="60" width="147" height="147"/><rect class="cls-36" x="245" y="60" width="147" height="147"/><rect class="cls-36" x="430.5" y="60" width="147" height="147"/><rect class="cls-36" x="61" y="244" width="147" height="147"/><rect class="cls-36" x="245" y="244" width="147" height="147"/><rect class="cls-36" x="429.77" y="244" width="147" height="147"/><rect class="cls-36" x="612.77" y="60" width="147" height="147"/><rect class="cls-36" x="798" y="60" width="147" height="147"/><rect class="cls-36" x="982" y="60" width="147" height="147"/><rect class="cls-36" x="612.77" y="244" width="147" height="147"/><rect class="cls-36" x="798" y="244" width="147" height="147"/><rect class="cls-36" x="982" y="244" width="147" height="147"/><rect class="cls-36" x="982" y="429.78" width="147" height="147"/><rect class="cls-36" x="798" y="429.78" width="147" height="147"/><rect class="cls-36" x="613" y="429.78" width="147" height="147"/><rect class="cls-36" x="429.77" y="429.78" width="147" height="147"/><rect class="cls-36" x="245" y="429.78" width="147" height="147"/><rect class="cls-36" x="61" y="429.78" width="147" height="147"/><rect class="cls-36" x="61.25" y="613" width="147" height="147"/><rect class="cls-36" x="245.25" y="613" width="147" height="147"/><rect class="cls-36" x="429.75" y="613" width="147" height="147"/><rect class="cls-36" x="61.25" y="798" width="147" height="147"/><rect class="cls-36" x="245.25" y="798" width="147" height="147"/><rect class="cls-36" x="429.02" y="798" width="147" height="147"/><rect class="cls-36" x="429.02" y="982.78" width="147" height="147"/><rect class="cls-36" x="245.25" y="982.78" width="147" height="147"/><rect class="cls-36" x="61.25" y="982.78" width="147" height="147"/><rect class="cls-36" x="613" y="613.11" width="147" height="147"/><rect class="cls-36" x="797" y="613.11" width="147" height="147"/><rect class="cls-36" x="982.5" y="613.11" width="147" height="147"/><rect class="cls-36" x="613" y="798.11" width="147" height="147"/><rect class="cls-36" x="798" y="798.11" width="147" height="147"/><rect class="cls-36" x="981.77" y="798.11" width="147" height="147"/><rect class="cls-36" x="981.77" y="981.89" width="147" height="147"/><rect class="cls-36" x="798" y="981.89" width="147" height="147"/><rect class="cls-36" x="613" y="981.89" width="147" height="147"/></g><g id="Titolo"><text class="cls-37" transform="translate(59.25 104.1)">vectors</text><text class="cls-38" transform="translate(130 1082.05)">CCClo<tspan class="cls-39" x="25.59" y="0">u</tspan><tspan x="30.48" y="0">d - Kengo K</tspan><tspan class="cls-40" x="74.93" y="0">u</tspan><tspan x="79.87" y="0">ma</tspan><tspan x="0" y="14">CCClo</tspan><tspan class="cls-39" x="25.59" y="14">u</tspan><tspan x="30.48" y="14">d è </tspan><tspan class="cls-40" x="43.05" y="14">u</tspan><tspan x="47.99" y="14">na </tspan><tspan class="cls-41" x="60.17" y="14">c</tspan><tspan x="63.15" y="14">ostr</tspan><tspan class="cls-41" x="76.42" y="14">u</tspan><tspan x="81.36" y="14">z</tspan><tspan class="cls-39" x="85.43" y="14">i</tspan><tspan x="88.17" y="14">one s</tspan><tspan class="cls-41" x="105.41" y="14">i</tspan><tspan class="cls-42" x="108.2" y="14">m</tspan><tspan x="115.89" y="14">b</tspan><tspan class="cls-39" x="120.38" y="14">o</tspan><tspan x="123.98" y="14">l</tspan><tspan class="cls-42" x="126.84" y="14">i</tspan><tspan x="129.58" y="14">ca, loc</tspan><tspan class="cls-39" x="151.56" y="14">a</tspan><tspan x="156.27" y="14">l</tspan><tspan class="cls-41" x="159.13" y="14">i</tspan><tspan x="161.92" y="14">zzata n</tspan><tspan class="cls-43" x="190.07" y="14">e</tspan><tspan x="193.23" y="14">l </tspan><tspan class="cls-41" x="198.09" y="14">c</tspan><tspan x="201.07" y="14">om</tspan><tspan class="cls-41" x="212.76" y="14">u</tspan><tspan x="217.7" y="14">ne di Cas</tspan><tspan class="cls-42" x="252.46" y="14">a</tspan><tspan x="257.17" y="14">lg</tspan><tspan class="cls-44" x="264.17" y="14">r</tspan><tspan class="cls-39" x="267.56" y="14">a</tspan><tspan x="272.28" y="14">nde – prov</tspan><tspan class="cls-41" x="311.38" y="14">i</tspan><tspan x="314.17" y="14">ncia di Regg</tspan><tspan class="cls-42" x="361.1" y="14">i</tspan><tspan x="363.84" y="14">o Em</tspan><tspan class="cls-45" x="383.29" y="14">i</tspan><tspan class="cls-46" x="385.98" y="14">lia – </tspan><tspan class="cls-39" x="0" y="28">c</tspan><tspan x="2.93" y="28">he si propone </tspan><tspan class="cls-40" x="51.77" y="28">c</tspan><tspan x="54.75" y="28">ome “Porta d</tspan><tspan class="cls-47" x="103.98" y="28">’</tspan><tspan x="105.68" y="28">a</tspan><tspan class="cls-41" x="110.59" y="28">cc</tspan><tspan class="cls-48" x="116.55" y="28">esso ovest” </tspan><tspan class="cls-39" x="154.17" y="28">a</tspan><tspan x="158.88" y="28">l Distretto </tspan><tspan class="cls-41" x="198.72" y="28">c</tspan><tspan x="201.7" y="28">e</tspan><tspan class="cls-44" x="205.1" y="28">r</tspan><tspan class="cls-42" x="208.5" y="28">a</tspan><tspan x="213.21" y="28">m</tspan><tspan class="cls-39" x="221.09" y="28">i</tspan><tspan class="cls-41" x="223.83" y="28">c</tspan><tspan x="226.81" y="28">o em</tspan><tspan class="cls-43" x="243.91" y="28">i</tspan><tspan x="246.6" y="28">li</tspan><tspan class="cls-39" x="252.4" y="28">a</tspan><tspan x="257.11" y="28">no.</tspan></text></g></svg>