<svg xmlns="http://www.w3.org/2000/svg" xmlns:xlink="http://www.w3.org/1999/xlink" viewBox="0 0 1190.55 1190.55"><defs><style>.cls-1,.cls-3,.cls-4,.cls-5{fill:none;}.cls-2{fill:#c7b299;}.cls-3{stroke:#a2195b;}.cls-3,.cls-4,.cls-5{stroke-miterlimit:10;}.cls-4{stroke:#39a935;}.cls-5{stroke:#f29100;}.cls-6{clip-path:url(#clip-path);}.cls-7{clip-path:url(#clip-path-2);}.cls-8{font-size:60px;font-family:OpenSansCondensed-Bold, Open Sans Condensed;font-weight:700;}.cls-29,.cls-8,.cls-9{fill:#fff;}.cls-9{font-size:16px;font-family:OpenSansCondensed-Light, Open Sans Condensed;}.cls-10{letter-spacing:0.11em;}.cls-11{letter-spacing:0.11em;}.cls-12{letter-spacing:0.2em;}.cls-13{letter-spacing:0.2em;}.cls-14{letter-spacing:0.02em;}.cls-15{letter-spacing:0.02em;}.cls-16{letter-spacing:0.28em;}.cls-17{letter-spacing:0.28em;}.cls-18{letter-spacing:0.15em;}.cls-19{letter-spacing:0.15em;}.cls-20{letter-spacing:0.04em;}.cls-21{letter-spacing:0.04em;}.cls-22{letter-spacing:0.02em;}.cls-23{letter-spacing:0.02em;}.cls-24{letter-spacing:0.1em;}.cls-25{letter-spacing:0.1em;}.cls-26{letter-spacing:0.29em;}.cls-27{letter-spacing:0.29em;}.cls-28{letter-spacing:0.02em;}.cls-29{font-size:10px;font-family:EBGaramond-Italic, EB Garamond;font-style:italic;}.cls-30{letter-spacing:-0.02em;}.cls-31{letter-spacing:0em;}.cls-32{letter-spacing:0.68em;}.cls-33{letter-spacing:0.68em;}.cls-34{letter-spacing:0.48em;}.cls-35{letter-spacing:0.48em;}.cls-36{letter-spacing:0.11em;}.cls-37{letter-spacing:0.38em;}.cls-38{letter-spacing:0.38em;}.cls-39{letter-spacing:0.16em;}.cls-40{letter-spacing:0.19em;}.cls-41{letter-spacing:0.19em;}.cls-42{letter-spacing:-0.02em;}.cls-43{letter-spacing:-0.02em;}.cls-44{letter-spacing:1.33em;}</style><clipPath id="clip-path"><rect class="cls-1" x="613.7" y="337.32" width="239.53" height="239.53"/></clipPath><clipPath id="clip-path-2"><circle class="cls-1" cx="180.71" cy="457.09" r="120.2"/></clipPath></defs><title>877689_07</title><g id="Livello_1" data-name="Livello 1"><rect class="cls-2" width="1190.55" height="1190.55"/></g><g id="Livello_2" data-name="Livello 2"><rect class="cls-3" x="60.94" y="60.94" width="239.53" height="239.53"/><rect class="cls-3" x="337.32" y="60.94" width="239.53" height="239.53"/><rect class="cls-3" x="613.7" y="60.94" width="239.53" height="239.53"/><rect class="cls-3" x="890.08" y="60.94" width="239.53" height="239.53"/><rect class="cls-3" x="60.94" y="337.32" width="239.53" height="239.53"/><rect class="cls-3" x="337.32" y="337.32" width="239.53" height="239.53"/><rect class="cls-3" x="613.7" y="337.32" width="239.53" height="239.53"/><rect class="cls-3" x="890.08" y="337.32" width="239.53" height="239.53"/><rect class="cls-3" x="60.94" y="613.7" width="239.53" height="239.53"/><rect class="cls-3" x="337.32" y="613.7" width="239.53" height="239.53"/><rect class="cls-3" x="613.7" y="613.7" width="239.53" height="239.53"/><rect class="cls-3" x="890.08" y="613.7" width="239.53" height="239.53"/><rect class="cls-3" x="60.94" y="890.08" width="239.53" height="239.53"/><rect class="cls-3" x="337.32" y="890.08" width="239.53" height="239.53"/><rect class="cls-3" x="613.7" y="890.08" width="239.53" height="239.53"/><rect class="cls-3" x="890.08" y="890.08" width="239.53" height="239.53"/><rect class="cls-4" x="282.05" y="60.94" width="184.25" height="184.25"/><rect class="cls-4" x="503.15" y="60.94" width="184.25" height="184.25"/><rect class="cls-4" x="725.62" y="60.94" width="184.25" height="184.25"/><rect class="cls-4" x="945.35" y="60.94" width="184.25" height="184.25"/><rect class="cls-4" x="60.94" y="60.94" width="184.25" height="184.25"/><rect class="cls-4" x="282.05" y="282.05" width="184.25" height="184.25"/><rect class="cls-4" x="503.15" y="282.05" width="184.25" height="184.25"/><rect class="cls-4" x="725.62" y="282.05" width="184.25" height="184.25"/><rect class="cls-4" x="945.35" y="282.05" width="184.25" height="184.25"/><rect class="cls-4" x="60.94" y="282.05" width="184.25" height="184.25"/><rect class="cls-4" x="282.05" y="503.15" width="184.25" height="184.25"/><rect class="cls-4" x="503.15" y="503.15" width="184.25" height="184.25"/><rect class="cls-4" x="725.62" y="503.15" width="184.25" height="184.25"/><rect class="cls-4" x="945.35" y="503.15" width="184.25" height="184.25"/><rect class="cls-4" x="60.94" y="503.15" width="184.25" height="184.25"/><rect class="cls-4" x="282.05" y="724.25" width="184.25" height="184.25"/><rect class="cls-4" x="503.15" y="724.25" width="184.25" height="184.25"/><rect class="cls-4" x="725.62" y="724.25" width="184.25" height="184.25"/><rect class="cls-4" x="945.35" y="724.25" width="184.25" height="184.25"/><rect class="cls-4" x="60.94" y="724.25" width="184.25" height="184.25"/><rect class="cls-4" x="282.05" y="945.35" width="184.25" height="184.25"/><rect class="cls-4" x="503.15" y="945.35" width="184.25" height="184.25"/><rect class="cls-4" x="725.62" y="945.35" width="184.25" height="184.25"/><rect class="cls-4" x="945.35" y="945.35" width="184.25" height="184.25"/><rect class="cls-4" x="60.94" y="945.35" width="184.25" height="184.25"/><rect class="cls-5" x="429.45" y="60.94" width="147.4" height="147.4"/><rect class="cls-5" x="613.7" y="60.94" width="147.4" height="147.4"/><rect class="cls-5" x="797.95" y="60.94" width="147.4" height="147.4"/><rect class="cls-5" x="982.2" y="60.94" width="147.4" height="147.4"/><rect class="cls-5" x="245.2" y="60.94" width="147.4" height="147.4"/><rect class="cls-5" x="60.94" y="60.94" width="147.4" height="147.4"/><rect class="cls-5" x="429.45" y="245.2" width="147.4" height="147.4"/><rect class="cls-5" x="613.7" y="245.2" width="147.4" height="147.4"/><rect class="cls-5" x="797.95" y="245.2" width="147.4" height="147.4"/><rect class="cls-5" x="982.2" y="245.2" width="147.4" height="147.4"/><rect class="cls-5" x="245.2" y="245.2" width="147.4" height="147.4"/><rect class="cls-5" x="60.94" y="245.2" width="147.4" height="147.4"/><rect class="cls-5" x="429.45" y="429.45" width="147.4" height="147.4"/><rect class="cls-5" x="613.7" y="429.45" width="147.4" height="147.4"/><rect class="cls-5" x="797.95" y="429.45" width="147.4" height="147.4"/><rect class="cls-5" x="982.2" y="429.45" width="147.4" height="147.4"/><rect class="cls-5" x="245.2" y="429.45" width="147.4" height="147.4"/><rect class="cls-5" x="60.94" y="429.45" width="147.4" height="147.4"/><rect class="cls-5" x="429.45" y="613.7" width="147.4" height="147.4"/><rect class="cls-5" x="613.7" y="613.7" width="147.4" height="147.4"/><rect class="cls-5" x="797.95" y="613.7" width="147.4" height="147.4"/><rect class="cls-5" x="982.2" y="613.7" width="147.4" height="147.4"/><rect class="cls-5" x="245.2" y="613.7" width="147.4" height="147.4"/><rect class="cls-5" x="60.94" y="613.7" width="147.4" height="147.4"/><rect class="cls-5" x="429.45" y="797.95" width="147.4" height="147.4"/><rect class="cls-5" x="613.7" y="797.95" width="147.4" height="147.4"/><rect class="cls-5" x="797.95" y="797.95" width="147.4" height="147.4"/><rect class="cls-5" x="982.2" y="797.95" width="147.4" height="147.4"/><rect class="cls-5" x="245.2" y="797.95" width="147.4" height="147.4"/><rect class="cls-5" x="60.94" y="797.95" width="147.4" height="147.4"/><rect class="cls-5" x="613.7" y="982.2" width="147.4" height="147.4"/><rect class="cls-5" x="797.95" y="982.2" width="147.4" height="147.4"/><rect class="cls-5" x="982.2" y="982.2" width="147.4" height="147.4"/><rect class="cls-5" x="245.2" y="982.2" width="147.4" height="147.4"/><rect class="cls-5" x="60.94" y="982.2" width="147.4" height="147.4"/><rect class="cls-5" x="429.45" y="982.2" width="147.4" height="147.4"/></g><g id="Livello_4" data-name="Livello 4"><g class="cls-6"><image width="564" height="374" transform="translate(565.61 202.85)" xlink:href="../VETTORIALI CORR/877689_03.jpg"/></g></g><g id="Livello_5" data-name="Livello 5"><g class="cls-7"><image width="564" height="256" transform="translate(-101.29 336.89)" xlink:href="877689_05.jpg"/></g></g><g id="Livello_6" data-name="Livello 6"><text class="cls-8" transform="translate(60.94 106.54)">Land Art</text><text class="cls-9" transform="translate(890.08 73.1)">Lorem<tspan class="cls-10" x="33.02" y="0"> </tspan><tspan x="37.74" y="0">ipsum</tspan><tspan class="cls-10" x="69.74" y="0"> </tspan><tspan x="74.46" y="0">dolor</tspan><tspan class="cls-11" x="102.09" y="0"> </tspan><tspan x="106.81" y="0">sit</tspan><tspan class="cls-10" x="118.37" y="0"> </tspan><tspan x="123.09" y="0">amet,</tspan><tspan class="cls-10" x="152.47" y="0"> </tspan><tspan x="157.19" y="0">consectetuer </tspan><tspan x="0" y="24">adipiscing</tspan><tspan class="cls-12" x="51.69" y="24"> </tspan><tspan x="57.92" y="24">elit,</tspan><tspan class="cls-13" x="77.01" y="24"> </tspan><tspan x="83.25" y="24">sed</tspan><tspan class="cls-12" x="101.53" y="24"> </tspan><tspan x="107.77" y="24">diam</tspan><tspan class="cls-13" x="134.05" y="24"> </tspan><tspan x="140.29" y="24">nonummy</tspan><tspan class="cls-12" x="192.78" y="24"> </tspan><tspan x="199.01" y="24">nibh </tspan><tspan x="0" y="48">euismod</tspan><tspan class="cls-14" x="44.91" y="48"> </tspan><tspan x="48.29" y="48">tincidunt</tspan><tspan class="cls-14" x="93.65" y="48"> </tspan><tspan x="97.03" y="48">ut</tspan><tspan class="cls-15" x="107.34" y="48"> </tspan><tspan x="110.71" y="48">laoreet</tspan><tspan class="cls-14" x="146.91" y="48"> </tspan><tspan x="150.29" y="48">dolore</tspan><tspan class="cls-14" x="184.19" y="48"> </tspan><tspan x="187.57" y="48">magna </tspan><tspan x="0" y="72">aliquam</tspan><tspan class="cls-16" x="42.22" y="72"> </tspan><tspan x="49.64" y="72">erat</tspan><tspan class="cls-16" x="69.91" y="72"> </tspan><tspan x="77.33" y="72">volutpat.</tspan><tspan class="cls-16" x="122.29" y="72"> </tspan><tspan x="129.72" y="72">Ut</tspan><tspan class="cls-17" x="141.13" y="72"> </tspan><tspan x="148.55" y="72">wisi</tspan><tspan class="cls-16" x="168.39" y="72"> </tspan><tspan x="175.81" y="72">enim</tspan><tspan class="cls-16" x="202.07" y="72"> </tspan><tspan x="209.49" y="72">ad </tspan><tspan x="0" y="96">minim</tspan><tspan class="cls-18" x="33.17" y="96"> </tspan><tspan x="38.56" y="96">veniam,</tspan><tspan class="cls-19" x="79.34" y="96"> </tspan><tspan x="84.73" y="96">quis</tspan><tspan class="cls-18" x="106.55" y="96"> </tspan><tspan x="111.94" y="96">nostrud</tspan><tspan class="cls-19" x="152.06" y="96"> </tspan><tspan x="157.45" y="96">exerci</tspan><tspan class="cls-18" x="187.62" y="96"> </tspan><tspan x="193" y="96">tation </tspan><tspan x="0" y="120">ullamcorper</tspan><tspan class="cls-20" x="62.7" y="120"> </tspan><tspan x="66.36" y="120">suscipit</tspan><tspan class="cls-21" x="104.7" y="120"> </tspan><tspan x="108.36" y="120">lobortis</tspan><tspan class="cls-20" x="147.55" y="120"> </tspan><tspan x="151.21" y="120">nisl</tspan><tspan class="cls-21" x="169.06" y="120"> </tspan><tspan x="172.72" y="120">ut</tspan><tspan class="cls-20" x="183.03" y="120"> </tspan><tspan x="186.69" y="120">aliquip </tspan><tspan x="0" y="144">ex</tspan><tspan class="cls-22" x="11.55" y="144"> </tspan><tspan x="14.91" y="144">ea</tspan><tspan class="cls-22" x="27.31" y="144"> </tspan><tspan x="30.66" y="144">commodo</tspan><tspan class="cls-23" x="82.88" y="144"> </tspan><tspan x="86.23" y="144">consequat.</tspan><tspan class="cls-22" x="142.65" y="144"> </tspan><tspan x="146" y="144">Duis</tspan><tspan class="cls-22" x="168.62" y="144"> </tspan><tspan x="171.97" y="144">autem</tspan><tspan class="cls-22" x="204.85" y="144"> </tspan><tspan x="208.21" y="144">vel </tspan><tspan x="0" y="168">eum</tspan><tspan class="cls-24" x="23.25" y="168"> </tspan><tspan x="27.89" y="168">iriure</tspan><tspan class="cls-24" x="55.71" y="168"> </tspan><tspan x="60.34" y="168">dolor</tspan><tspan class="cls-25" x="87.97" y="168"> </tspan><tspan x="92.61" y="168">in</tspan><tspan class="cls-24" x="102.42" y="168"> </tspan><tspan x="107.05" y="168">hendrerit</tspan><tspan class="cls-24" x="155.42" y="168"> </tspan><tspan x="160.05" y="168">in</tspan><tspan class="cls-24" x="169.86" y="168"> </tspan><tspan x="174.5" y="168">vulputate </tspan><tspan x="0" y="192">velit</tspan><tspan class="cls-26" x="20.9" y="192"> </tspan><tspan x="28.57" y="192">esse</tspan><tspan class="cls-26" x="51.19" y="192"> </tspan><tspan x="58.86" y="192">molestie</tspan><tspan class="cls-27" x="102.79" y="192"> </tspan><tspan x="110.46" y="192">consequat,</tspan><tspan class="cls-26" x="166.87" y="192"> </tspan><tspan x="174.54" y="192">vel</tspan><tspan class="cls-26" x="188.92" y="192"> </tspan><tspan x="196.59" y="192">illum </tspan><tspan x="0" y="216">dolore</tspan><tspan class="cls-28" x="33.91" y="216"> </tspan><tspan x="37.3" y="216">eu</tspan><tspan class="cls-28" x="50.37" y="216"> </tspan><tspan x="53.77" y="216">feugiat</tspan><tspan class="cls-28" x="88.81" y="216"> </tspan><tspan x="92.2" y="216">nulla</tspan><tspan class="cls-28" x="117.94" y="216"> </tspan><tspan x="121.33" y="216">facilisis</tspan><tspan class="cls-28" x="158.07" y="216"> </tspan><tspan x="161.46" y="216">at</tspan><tspan class="cls-28" x="171.09" y="216"> </tspan><tspan x="174.49" y="216">vero</tspan><tspan class="cls-28" x="196.87" y="216"> </tspan><tspan x="200.27" y="216">eros </tspan></text><text class="cls-29" transform="translate(865.98 575.9)">Kengo K<tspan class="cls-30" x="32.61" y="0">u</tspan><tspan x="37.55" y="0">ma</tspan></text></g><g id="Livello_7" data-name="Livello 7"><text class="cls-9" transform="translate(437.22 79.4)"><tspan class="cls-31">Lore</tspan><tspan x="23.01" y="0">m </tspan><tspan x="-54.52" y="24">ipsum</tspan><tspan class="cls-32" x="-22.52" y="24"> </tspan><tspan x="-8.63" y="24">dolor</tspan><tspan class="cls-33" x="19" y="24"> </tspan><tspan x="32.88" y="24">sit</tspan><tspan class="cls-32" x="44.44" y="24"> </tspan><tspan x="58.32" y="24">amet, </tspan><tspan x="-76.63" y="48">consectetuer</tspan><tspan class="cls-34" x="-11.23" y="48"> </tspan><tspan x="-0.57" y="48">adipiscing</tspan><tspan class="cls-35" x="51.12" y="48"> </tspan><tspan x="61.78" y="48">elit,</tspan><tspan class="cls-34" x="80.87" y="48"> </tspan><tspan x="91.53" y="48">sed </tspan><tspan x="-89.12" y="72">diam</tspan><tspan class="cls-36" x="-62.83" y="72"> </tspan><tspan x="-58.13" y="72">nonummy</tspan><tspan class="cls-36" x="-5.64" y="72"> </tspan><tspan x="-0.94" y="72">nibh</tspan><tspan class="cls-36" x="22.64" y="72"> </tspan><tspan x="27.34" y="72">euismod</tspan><tspan class="cls-36" x="72.25" y="72"> </tspan><tspan x="76.95" y="72">tincidunt </tspan><tspan x="-95.21" y="96">ut</tspan><tspan class="cls-37" x="-84.9" y="96"> </tspan><tspan x="-75.76" y="96">laoreet</tspan><tspan class="cls-37" x="-39.57" y="96"> </tspan><tspan x="-30.43" y="96">dolore</tspan><tspan class="cls-38" x="3.48" y="96"> </tspan><tspan x="12.61" y="96">magna</tspan><tspan class="cls-37" x="47.63" y="96"> </tspan><tspan x="56.77" y="96">aliquam</tspan><tspan class="cls-37" x="98.99" y="96"> </tspan><tspan x="108.12" y="96">erat </tspan><tspan x="-94.65" y="120">volutpat.</tspan><tspan class="cls-39" x="-49.69" y="120"> </tspan><tspan x="-44.19" y="120">Ut</tspan><tspan class="cls-39" x="-32.78" y="120"> </tspan><tspan x="-27.29" y="120">wisi</tspan><tspan class="cls-39" x="-7.45" y="120"> </tspan><tspan x="-1.96" y="120">enim</tspan><tspan class="cls-39" x="24.3" y="120"> </tspan><tspan x="29.8" y="120">ad</tspan><tspan class="cls-39" x="42.9" y="120"> </tspan><tspan x="48.39" y="120">minim</tspan><tspan class="cls-39" x="81.56" y="120"> </tspan><tspan x="87.06" y="120">veniam, </tspan><tspan x="-87.7" y="144">quis</tspan><tspan class="cls-40" x="-65.88" y="144"> </tspan><tspan x="-59.83" y="144">nostrud</tspan><tspan class="cls-41" x="-19.7" y="144"> </tspan><tspan x="-13.66" y="144">exerci</tspan><tspan class="cls-41" x="16.51" y="144"> </tspan><tspan x="22.55" y="144">tation</tspan><tspan class="cls-40" x="52.14" y="144"> </tspan><tspan x="58.18" y="144">ullamcorper </tspan><tspan x="-74.06" y="168">suscipit</tspan><tspan class="cls-42" x="-35.72" y="168"> </tspan><tspan x="-33.09" y="168">lobortis</tspan><tspan class="cls-43" x="6.09" y="168"> </tspan><tspan x="8.72" y="168">nisl</tspan><tspan class="cls-43" x="26.57" y="168"> </tspan><tspan x="29.2" y="168">ut</tspan><tspan class="cls-42" x="39.51" y="168"> </tspan><tspan x="42.14" y="168">aliquip</tspan><tspan class="cls-42" x="78.04" y="168"> </tspan><tspan x="80.67" y="168">ex</tspan><tspan class="cls-43" x="92.22" y="168"> </tspan><tspan x="94.85" y="168">ea </tspan><tspan x="-49.84" y="192">commodo</tspan><tspan class="cls-44" x="2.38" y="192"> </tspan><tspan x="26.61" y="192">consequat. </tspan></text></g></svg>