<svg xmlns="http://www.w3.org/2000/svg" viewBox="0 0 1190.55 1190.55"><defs><style>.cls-1{fill:#c7b299;}.cls-2,.cls-3,.cls-4{fill:none;stroke-miterlimit:10;}.cls-2{stroke:#9e005d;}.cls-3{stroke:#f7931e;}.cls-4{stroke:#009245;}</style></defs><title>877689_01 (1)</title><g id="Livello_1" data-name="Livello 1"><rect class="cls-1" width="1190.55" height="1190.55"/></g><g id="Livello_2" data-name="Livello 2"><rect class="cls-2" x="61" y="60" width="240" height="240"/><rect class="cls-2" x="61" y="337" width="240" height="240"/><rect class="cls-2" x="337" y="60" width="240" height="240"/><rect class="cls-2" x="337" y="337" width="240" height="240"/><rect class="cls-2" x="613" y="60" width="240" height="240"/><rect class="cls-2" x="613" y="337" width="240" height="240"/><rect class="cls-2" x="889" y="60" width="240" height="240"/><rect class="cls-2" x="889" y="337" width="240" height="240"/><rect class="cls-2" x="889" y="613" width="240" height="240"/><rect class="cls-2" x="613" y="613" width="240" height="240"/><rect class="cls-2" x="889" y="889" width="240" height="240"/><rect class="cls-2" x="613" y="889" width="240" height="240"/><rect class="cls-2" x="336" y="889" width="240" height="240"/><rect class="cls-2" x="61" y="889" width="240" height="240"/><rect class="cls-2" x="61" y="613" width="240" height="240"/><rect class="cls-2" x="336" y="613" width="240" height="240"/></g><g id="Livello_3" data-name="Livello 3"><rect class="cls-3" x="61" y="60" width="184" height="184"/><rect class="cls-3" x="281" y="60" width="184" height="184"/><rect class="cls-3" x="281" y="281" width="184" height="184"/><rect class="cls-3" x="61" y="281" width="184" height="184"/><rect class="cls-3" x="503.27" y="60" width="184" height="184"/><rect class="cls-3" x="503.27" y="281" width="184" height="184"/><rect class="cls-3" x="503.27" y="503.28" width="184" height="184"/><rect class="cls-3" x="281" y="503.13" width="184" height="184"/><rect class="cls-3" x="61" y="502" width="184" height="184"/><rect class="cls-3" x="61" y="723" width="184" height="184"/><rect class="cls-3" x="281" y="723" width="184" height="184"/><rect class="cls-3" x="503.13" y="723" width="184" height="184"/><rect class="cls-3" x="503.27" y="945" width="184" height="184"/><rect class="cls-3" x="281" y="945" width="184" height="184"/><rect class="cls-3" x="61" y="945" width="184" height="184"/><rect class="cls-3" x="724" y="60" width="184" height="184"/><rect class="cls-3" x="945" y="60" width="184" height="184"/><rect class="cls-3" x="945" y="281" width="184" height="184"/><rect class="cls-3" x="724" y="281" width="184" height="184"/><rect class="cls-3" x="724" y="503.28" width="184" height="184"/><rect class="cls-3" x="945" y="503.13" width="184" height="184"/><rect class="cls-3" x="724" y="723" width="184" height="184"/><rect class="cls-3" x="945" y="723" width="184" height="184"/><rect class="cls-3" x="724" y="945" width="184" height="184"/><rect class="cls-3" x="945" y="945" width="184" height="184"/></g><g id="Livello_4" data-name="Livello 4"><rect class="cls-4" x="61" y="60" width="147" height="147"/><rect class="cls-4" x="245" y="60" width="147" height="147"/><rect class="cls-4" x="430.5" y="60" width="147" height="147"/><rect class="cls-4" x="61" y="244" width="147" height="147"/><rect class="cls-4" x="245" y="244" width="147" height="147"/><rect class="cls-4" x="429.77" y="244" width="147" height="147"/><rect class="cls-4" x="612.77" y="60" width="147" height="147"/><rect class="cls-4" x="798" y="60" width="147" height="147"/><rect class="cls-4" x="982" y="60" width="147" height="147"/><rect class="cls-4" x="612.77" y="244" width="147" height="147"/><rect class="cls-4" x="798" y="244" width="147" height="147"/><rect class="cls-4" x="982" y="244" width="147" height="147"/><rect class="cls-4" x="982" y="429.78" width="147" height="147"/><rect class="cls-4" x="798" y="429.78" width="147" height="147"/><rect class="cls-4" x="613" y="429.78" width="147" height="147"/><rect class="cls-4" x="429.77" y="429.78" width="147" height="147"/><rect class="cls-4" x="245" y="429.78" width="147" height="147"/><rect class="cls-4" x="61" y="429.78" width="147" height="147"/><rect class="cls-4" x="61.25" y="613" width="147" height="147"/><rect class="cls-4" x="245.25" y="613" width="147" height="147"/><rect class="cls-4" x="429.75" y="613" width="147" height="147"/><rect class="cls-4" x="61.25" y="798" width="147" height="147"/><rect class="cls-4" x="245.25" y="798" width="147" height="147"/><rect class="cls-4" x="429.02" y="798" width="147" height="147"/><rect class="cls-4" x="429.02" y="982.78" width="147" height="147"/><rect class="cls-4" x="245.25" y="982.78" width="147" height="147"/><rect class="cls-4" x="61.25" y="982.78" width="147" height="147"/><rect class="cls-4" x="613" y="613.11" width="147" height="147"/><rect class="cls-4" x="797" y="613.11" width="147" height="147"/><rect class="cls-4" x="982.5" y="613.11" width="147" height="147"/><rect class="cls-4" x="613" y="798.11" width="147" height="147"/><rect class="cls-4" x="798" y="798.11" width="147" height="147"/><rect class="cls-4" x="981.77" y="798.11" width="147" height="147"/><rect class="cls-4" x="981.77" y="981.89" width="147" height="147"/><rect class="cls-4" x="798" y="981.89" width="147" height="147"/><rect class="cls-4" x="613" y="981.89" width="147" height="147"/></g></svg>